<?xml version="1.0" encoding="UTF-8" standalone="no"?>
<svg
   width="21.485983"
   height="21.5"
   viewBox="0 0 21.485983 21.5"
   version="1.1"
   id="svg3"
   sodipodi:docname="nonaligned_icon.svg"
   inkscape:version="1.4.3 (0d15f75042, 2025-12-25)"
   xmlns:inkscape="http://www.inkscape.org/namespaces/inkscape"
   xmlns:sodipodi="http://sodipodi.sourceforge.net/DTD/sodipodi-0.dtd"
   xmlns="http://www.w3.org/2000/svg"
   xmlns:svg="http://www.w3.org/2000/svg">
  <defs
     id="defs3" />
  <sodipodi:namedview
     id="namedview3"
     pagecolor="#ffffff"
     bordercolor="#666666"
     borderopacity="1.0"
     inkscape:showpageshadow="2"
     inkscape:pageopacity="0.0"
     inkscape:pagecheckerboard="0"
     inkscape:deskcolor="#d1d1d1"
     inkscape:zoom="42.833333"
     inkscape:cx="10.727627"
     inkscape:cy="10.727627"
     inkscape:window-width="3200"
     inkscape:window-height="1800"
     inkscape:window-x="0"
     inkscape:window-y="0"
     inkscape:window-maximized="1"
     inkscape:current-layer="svg3" />
  <g
     fill="none"
     stroke="currentColor"
     stroke-linecap="round"
     stroke-linejoin="round"
     stroke-width="1.5"
     color="currentColor"
     id="g3"
     style="fill:none;stroke:#ffffff"
     transform="translate(-1.2571251,-1.2500007)">
    <path
       d="m 12,5 v 17 m 0,0 H 9 m 3,0 h 3 M 21,13 18.5,8 16,13 M 8,13 5.5,8 3,13"
       id="path1"
       style="fill:none;stroke:#ffffff" />
    <path
       d="m 4,8 h 1.048 c 1.264,0 2.49,-0.529 3.476,-1.5 2.032,-2 4.92,-2 6.952,0 0.986,0.971 2.212,1.5 3.476,1.5 H 20 m -1.5,9 c 1.355,0 2.534,-0.834 3.147,-2.065 0.331,-0.665 0.496,-0.997 0.195,-1.466 C 21.54,13 21.04,13 20.04,13 h -3.082 c -0.999,0 -1.499,0 -1.8,0.469 -0.302,0.469 -0.137,0.801 0.194,1.466 C 15.966,16.166 17.145,17 18.5,17 m -13,0 C 6.855,17 8.034,16.166 8.647,14.935 8.978,14.27 9.143,13.938 8.842,13.469 8.54,13 8.04,13 7.04,13 H 3.959 C 2.96,13 2.46,13 2.159,13.469 1.857,13.938 2.022,14.27 2.353,14.935 2.966,16.166 4.145,17 5.5,17"
       id="path2"
       style="fill:none;stroke:#ffffff" />
    <path
       d="m 13.5,3.5 a 1.5,1.5 0 1 1 -3,0 1.5,1.5 0 0 1 3,0"
       id="path3"
       style="fill:none;stroke:#ffffff" />
  </g>
</svg>
